<?xml version="1.0" encoding="UTF-8" standalone="no"?>
<svg width="366px" height="366px" viewBox="0 0 366 366" version="1.1" xmlns="http://www.w3.org/2000/svg" xmlns:xlink="http://www.w3.org/1999/xlink" xmlns:sketch="http://www.bohemiancoding.com/sketch/ns">
    <!-- Generator: Sketch 3.4.1 (15681) - http://www.bohemiancoding.com/sketch -->
    <title>aerix-logo-round</title>
    <desc>Created with Sketch.</desc>
    <defs></defs>
    <g id="Page-1" stroke="none" stroke-width="1" fill="none" fill-rule="evenodd" sketch:type="MSPage">
        <g id="aerix-logo-round" sketch:type="MSLayerGroup">
            <path d="M183,366 C284.068109,366 366,284.068109 366,183 C366,81.9318908 284.068109,0 183,0 C81.9318908,0 0,81.9318908 0,183 C0,284.068109 81.9318908,366 183,366 L183,366 Z" id="Oval-1" fill="#000000" sketch:type="MSShapeGroup"></path>
            <path d="M183,362 C281.85897,362 362,281.85897 362,183 C362,84.1410298 281.85897,4 183,4 C84.1410298,4 4,84.1410298 4,183 C4,281.85897 84.1410298,362 183,362 L183,362 Z" id="Oval-1" fill="#FFFFFF" sketch:type="MSShapeGroup"></path>
            <path d="M183,353 C276.888407,353 353,276.888407 353,183 C353,89.1115925 276.888407,13 183,13 C89.1115925,13 13,89.1115925 13,183 C13,276.888407 89.1115925,353 183,353 L183,353 Z" id="Oval-1" fill="#000000" sketch:type="MSShapeGroup"></path>
            <g id="icon" transform="translate(183.669048, 87.669048) rotate(45.000000) translate(-183.669048, -87.669048) translate(150.669048, 54.669048)" sketch:type="MSShapeGroup">
                <rect id="Rectangle-path" fill="#1B2C34" x="0" y="0" width="30" height="30"></rect>
                <path d="M0,0 L30,0 L30,30 L0,0 L0,0 Z" id="Shape" fill="#18688B"></path>
                <rect id="Rectangle-path" fill="#299CD0" x="36" y="0" width="30" height="30"></rect>
                <rect id="Rectangle-path" fill="#935423" x="36" y="36" width="30" height="30"></rect>
                <path d="M36,36 L66,36 L66,66 L36,36 L36,36 Z" id="Shape" fill="#E28A25"></path>
            </g>
            <path d="M114.021484,194.447266 L86.4824219,194.447266 L80.7207031,211 L67.8789062,211 L94.734375,139.90625 L105.818359,139.90625 L132.722656,211 L119.832031,211 L114.021484,194.447266 L114.021484,194.447266 Z M89.9492188,184.486328 L110.554688,184.486328 L100.251953,154.994141 L89.9492188,184.486328 L89.9492188,184.486328 Z M162.898438,211.976562 C155.378869,211.976562 149.283552,209.608422 144.612305,204.87207 C139.941057,200.135719 137.605469,193.828815 137.605469,185.951172 L137.605469,184.486328 C137.605469,179.212864 138.622711,174.500997 140.657227,170.350586 C142.691742,166.200175 145.548159,162.969413 149.226562,160.658203 C152.904966,158.346994 157.006488,157.191406 161.53125,157.191406 C168.725296,157.191406 174.283509,159.486305 178.206055,164.076172 C182.1286,168.666039 184.089844,175.160114 184.089844,183.558594 L184.089844,188.34375 L149.568359,188.34375 C149.926434,192.705751 151.383125,196.156237 153.938477,198.695312 C156.493828,201.234388 159.708314,202.503906 163.582031,202.503906 C169.018256,202.503906 173.445295,200.306663 176.863281,195.912109 L183.259766,202.015625 C181.14387,205.173193 178.320005,207.622713 174.788086,209.364258 C171.256167,211.105803 167.292991,211.976562 162.898438,211.976562 L162.898438,211.976562 L162.898438,211.976562 Z M161.482422,166.712891 C158.227197,166.712891 155.598643,167.852202 153.59668,170.130859 C151.594717,172.409517 150.31706,175.583313 149.763672,179.652344 L172.371094,179.652344 L172.371094,178.773438 C172.110676,174.802063 171.052744,171.799164 169.197266,169.764648 C167.341788,167.730133 164.770199,166.712891 161.482422,166.712891 L161.482422,166.712891 L161.482422,166.712891 Z M220.955078,169.007812 C219.39257,168.747395 217.781258,168.617188 216.121094,168.617188 C210.684869,168.617188 207.022796,170.7005 205.134766,174.867188 L205.134766,211 L193.269531,211 L193.269531,158.167969 L204.597656,158.167969 L204.890625,164.076172 C207.755223,159.486305 211.726537,157.191406 216.804688,157.191406 C218.497404,157.191406 219.89713,157.419269 221.003906,157.875 L220.955078,169.007812 L220.955078,169.007812 Z M241.072266,211 L229.207031,211 L229.207031,158.167969 L241.072266,158.167969 L241.072266,211 L241.072266,211 Z M228.474609,144.447266 C228.474609,142.62434 229.052403,141.110683 230.208008,139.90625 C231.363613,138.701817 233.015614,138.099609 235.164062,138.099609 C237.312511,138.099609 238.97265,138.701817 240.144531,139.90625 C241.316412,141.110683 241.902344,142.62434 241.902344,144.447266 C241.902344,146.237639 241.316412,147.726882 240.144531,148.915039 C238.97265,150.103196 237.312511,150.697266 235.164062,150.697266 C233.015614,150.697266 231.363613,150.103196 230.208008,148.915039 C229.052403,147.726882 228.474609,146.237639 228.474609,144.447266 L228.474609,144.447266 L228.474609,144.447266 Z M272.957031,175.550781 L283.015625,158.167969 L296.199219,158.167969 L280.037109,184.193359 L296.736328,211 L283.650391,211 L273.103516,192.933594 L262.605469,211 L249.421875,211 L266.121094,184.193359 L250.007812,158.167969 L263.09375,158.167969 L272.957031,175.550781 L272.957031,175.550781 Z" id="Aerix" fill="#FFFFFF" sketch:type="MSShapeGroup"></path>
            <path d="M81.1777344,243.164062 L74,243.164062 L74,240.484375 L81.1777344,240.484375 L81.1777344,243.164062 L81.1777344,243.164062 Z M105.158203,250.287109 L105.158203,230.380859 L111.037109,230.380859 C112.796233,230.380859 114.35709,230.772783 115.719727,231.556641 C117.082364,232.340499 118.137366,233.452467 118.884766,234.892578 C119.632165,236.332689 120.005859,237.982413 120.005859,239.841797 L120.005859,240.839844 C120.005859,242.726572 119.629887,244.38541 118.87793,245.816406 C118.125973,247.247403 117.05502,248.350257 115.665039,249.125 C114.275058,249.899743 112.682301,250.287109 110.886719,250.287109 L105.158203,250.287109 L105.158203,250.287109 Z M108.617188,233.169922 L108.617188,247.525391 L110.873047,247.525391 C112.686858,247.525391 114.079097,246.958013 115.049805,245.823242 C116.020513,244.688471 116.514974,243.059255 116.533203,240.935547 L116.533203,239.828125 C116.533203,237.667958 116.063807,236.018235 115.125,234.878906 C114.186193,233.739578 112.823577,233.169922 111.037109,233.169922 L108.617188,233.169922 L108.617188,233.169922 Z M126.664062,250.287109 L123.341797,250.287109 L123.341797,235.494141 L126.664062,235.494141 L126.664062,250.287109 L126.664062,250.287109 Z M123.136719,231.652344 C123.136719,231.141925 123.298501,230.718101 123.62207,230.380859 C123.94564,230.043618 124.4082,229.875 125.009766,229.875 C125.611331,229.875 126.07617,230.043618 126.404297,230.380859 C126.732424,230.718101 126.896484,231.141925 126.896484,231.652344 C126.896484,232.153648 126.732424,232.570636 126.404297,232.90332 C126.07617,233.236004 125.611331,233.402344 125.009766,233.402344 C124.4082,233.402344 123.94564,233.236004 123.62207,232.90332 C123.298501,232.570636 123.136719,232.153648 123.136719,231.652344 L123.136719,231.652344 L123.136719,231.652344 Z M129.699219,242.78125 C129.699219,240.484364 130.239252,238.650072 131.319336,237.27832 C132.399419,235.906569 133.832673,235.220703 135.619141,235.220703 C137.305347,235.220703 138.631506,235.808588 139.597656,236.984375 L139.748047,235.494141 L142.742188,235.494141 L142.742188,249.835938 C142.742188,251.777353 142.138352,253.308588 140.930664,254.429688 C139.722976,255.550787 138.09376,256.111328 136.042969,256.111328 C134.958328,256.111328 133.898768,255.885744 132.864258,255.43457 C131.829747,254.983396 131.043622,254.393233 130.505859,253.664062 L132.078125,251.667969 C133.098963,252.880214 134.356763,253.486328 135.851562,253.486328 C136.954433,253.486328 137.824867,253.187829 138.462891,252.59082 C139.100915,251.993812 139.419922,251.116542 139.419922,249.958984 L139.419922,248.960938 C138.462886,250.027349 137.186857,250.560547 135.591797,250.560547 C133.860017,250.560547 132.444992,249.872403 131.34668,248.496094 C130.248367,247.119785 129.699219,245.214856 129.699219,242.78125 L129.699219,242.78125 L129.699219,242.78125 Z M133.007812,243.068359 C133.007812,244.554044 133.310869,245.722978 133.916992,246.575195 C134.523115,247.427413 135.363927,247.853516 136.439453,247.853516 C137.779304,247.853516 138.772783,247.279303 139.419922,246.130859 L139.419922,239.623047 C138.791012,238.501948 137.806647,237.941406 136.466797,237.941406 C135.373041,237.941406 134.523115,238.374345 133.916992,239.240234 C133.310869,240.106124 133.007812,241.382153 133.007812,243.068359 L133.007812,243.068359 L133.007812,243.068359 Z M149.6875,250.287109 L146.365234,250.287109 L146.365234,235.494141 L149.6875,235.494141 L149.6875,250.287109 L149.6875,250.287109 Z M146.160156,231.652344 C146.160156,231.141925 146.321938,230.718101 146.645508,230.380859 C146.969077,230.043618 147.431638,229.875 148.033203,229.875 C148.634769,229.875 149.099608,230.043618 149.427734,230.380859 C149.755861,230.718101 149.919922,231.141925 149.919922,231.652344 C149.919922,232.153648 149.755861,232.570636 149.427734,232.90332 C149.099608,233.236004 148.634769,233.402344 148.033203,233.402344 C147.431638,233.402344 146.969077,233.236004 146.645508,232.90332 C146.321938,232.570636 146.160156,232.153648 146.160156,231.652344 L146.160156,231.652344 L146.160156,231.652344 Z M157.466797,231.898438 L157.466797,235.494141 L160.078125,235.494141 L160.078125,237.955078 L157.466797,237.955078 L157.466797,246.212891 C157.466797,246.777998 157.578449,247.185871 157.801758,247.436523 C158.025066,247.687176 158.423825,247.8125 158.998047,247.8125 C159.380861,247.8125 159.768227,247.766928 160.160156,247.675781 L160.160156,250.246094 C159.403642,250.45573 158.674483,250.560547 157.972656,250.560547 C155.42056,250.560547 154.144531,249.152358 154.144531,246.335938 L154.144531,237.955078 L151.710938,237.955078 L151.710938,235.494141 L154.144531,235.494141 L154.144531,231.898438 L157.466797,231.898438 L157.466797,231.898438 Z M171.453125,250.287109 C171.307291,250.004556 171.179688,249.544274 171.070312,248.90625 C170.013016,250.00912 168.718758,250.560547 167.1875,250.560547 C165.701815,250.560547 164.489588,250.136723 163.550781,249.289062 C162.611974,248.441402 162.142578,247.393235 162.142578,246.144531 C162.142578,244.5677 162.728184,243.357752 163.899414,242.514648 C165.070644,241.671545 166.745432,241.25 168.923828,241.25 L170.960938,241.25 L170.960938,240.279297 C170.960938,239.513668 170.746747,238.900718 170.318359,238.44043 C169.889972,237.980141 169.238286,237.75 168.363281,237.75 C167.606767,237.75 166.986982,237.939126 166.503906,238.317383 C166.020831,238.69564 165.779297,239.176429 165.779297,239.759766 L162.457031,239.759766 C162.457031,238.948564 162.725909,238.189782 163.263672,237.483398 C163.801435,236.777015 164.532873,236.223309 165.458008,235.822266 C166.383143,235.421222 167.415359,235.220703 168.554688,235.220703 C170.286467,235.220703 171.667313,235.65592 172.697266,236.526367 C173.727219,237.396814 174.255859,238.620435 174.283203,240.197266 L174.283203,246.869141 C174.283203,248.199876 174.47005,249.261715 174.84375,250.054688 L174.84375,250.287109 L171.453125,250.287109 L171.453125,250.287109 Z M167.802734,247.894531 C168.458988,247.894531 169.076495,247.735028 169.655273,247.416016 C170.234052,247.097004 170.669269,246.668622 170.960938,246.130859 L170.960938,243.341797 L169.169922,243.341797 C167.939447,243.341797 167.014326,243.555987 166.394531,243.984375 C165.774736,244.412763 165.464844,245.018876 165.464844,245.802734 C165.464844,246.440758 165.676756,246.948891 166.100586,247.327148 C166.524416,247.705406 167.091793,247.894531 167.802734,247.894531 L167.802734,247.894531 L167.802734,247.894531 Z M181.296875,250.287109 L177.974609,250.287109 L177.974609,229.287109 L181.296875,229.287109 L181.296875,250.287109 L181.296875,250.287109 Z M197.962891,247.908203 C198.792322,247.908203 199.480466,247.666669 200.027344,247.183594 C200.574221,246.700518 200.865885,246.103519 200.902344,245.392578 L204.033203,245.392578 C203.996745,246.313156 203.709638,247.172197 203.171875,247.969727 C202.634112,248.767257 201.904953,249.398435 200.984375,249.863281 C200.063797,250.328127 199.070318,250.560547 198.003906,250.560547 C195.934885,250.560547 194.294277,249.890632 193.082031,248.550781 C191.869786,247.210931 191.263672,245.360689 191.263672,243 L191.263672,242.658203 C191.263672,240.40689 191.865228,238.604499 193.068359,237.250977 C194.27149,235.897454 195.912099,235.220703 197.990234,235.220703 C199.749358,235.220703 201.182612,235.733393 202.290039,236.758789 C203.397466,237.784185 203.978515,239.130851 204.033203,240.798828 L200.902344,240.798828 C200.865885,239.951168 200.5765,239.253909 200.03418,238.707031 C199.491859,238.160154 198.801436,237.886719 197.962891,237.886719 C196.887364,237.886719 196.057946,238.276363 195.474609,239.055664 C194.891273,239.834965 194.595052,241.01757 194.585938,242.603516 L194.585938,243.136719 C194.585938,244.740893 194.875323,245.937171 195.454102,246.725586 C196.03288,247.514001 196.869135,247.908203 197.962891,247.908203 L197.962891,247.908203 L197.962891,247.908203 Z M214.287109,238.529297 C213.849607,238.45638 213.39844,238.419922 212.933594,238.419922 C211.411451,238.419922 210.38607,239.003249 209.857422,240.169922 L209.857422,250.287109 L206.535156,250.287109 L206.535156,235.494141 L209.707031,235.494141 L209.789062,237.148438 C210.59115,235.863275 211.703118,235.220703 213.125,235.220703 C213.598961,235.220703 213.990884,235.284505 214.300781,235.412109 L214.287109,238.529297 L214.287109,238.529297 Z M224.814453,250.287109 C224.668619,250.004556 224.541016,249.544274 224.431641,248.90625 C223.374344,250.00912 222.080086,250.560547 220.548828,250.560547 C219.063144,250.560547 217.850916,250.136723 216.912109,249.289062 C215.973303,248.441402 215.503906,247.393235 215.503906,246.144531 C215.503906,244.5677 216.089512,243.357752 217.260742,242.514648 C218.431972,241.671545 220.10676,241.25 222.285156,241.25 L224.322266,241.25 L224.322266,240.279297 C224.322266,239.513668 224.108075,238.900718 223.679688,238.44043 C223.2513,237.980141 222.599614,237.75 221.724609,237.75 C220.968095,237.75 220.34831,237.939126 219.865234,238.317383 C219.382159,238.69564 219.140625,239.176429 219.140625,239.759766 L215.818359,239.759766 C215.818359,238.948564 216.087237,238.189782 216.625,237.483398 C217.162763,236.777015 217.894201,236.223309 218.819336,235.822266 C219.744471,235.421222 220.776687,235.220703 221.916016,235.220703 C223.647795,235.220703 225.028641,235.65592 226.058594,236.526367 C227.088547,237.396814 227.617187,238.620435 227.644531,240.197266 L227.644531,246.869141 C227.644531,248.199876 227.831378,249.261715 228.205078,250.054688 L228.205078,250.287109 L224.814453,250.287109 L224.814453,250.287109 Z M221.164062,247.894531 C221.820316,247.894531 222.437823,247.735028 223.016602,247.416016 C223.59538,247.097004 224.030597,246.668622 224.322266,246.130859 L224.322266,243.341797 L222.53125,243.341797 C221.300775,243.341797 220.375654,243.555987 219.755859,243.984375 C219.136065,244.412763 218.826172,245.018876 218.826172,245.802734 C218.826172,246.440758 219.038084,246.948891 219.461914,247.327148 C219.885744,247.705406 220.453121,247.894531 221.164062,247.894531 L221.164062,247.894531 L221.164062,247.894531 Z M232.292969,250.287109 L232.292969,237.955078 L230.037109,237.955078 L230.037109,235.494141 L232.292969,235.494141 L232.292969,234.140625 C232.292969,232.499992 232.748693,231.233077 233.660156,230.339844 C234.571619,229.44661 235.847648,229 237.488281,229 C238.071618,229 238.691403,229.08203 239.347656,229.246094 L239.265625,231.84375 C238.90104,231.770833 238.477216,231.734375 237.994141,231.734375 C236.408195,231.734375 235.615234,232.550122 235.615234,234.181641 L235.615234,235.494141 L238.623047,235.494141 L238.623047,237.955078 L235.615234,237.955078 L235.615234,250.287109 L232.292969,250.287109 L232.292969,250.287109 Z M245.212891,231.898438 L245.212891,235.494141 L247.824219,235.494141 L247.824219,237.955078 L245.212891,237.955078 L245.212891,246.212891 C245.212891,246.777998 245.324543,247.185871 245.547852,247.436523 C245.77116,247.687176 246.169919,247.8125 246.744141,247.8125 C247.126955,247.8125 247.514321,247.766928 247.90625,247.675781 L247.90625,250.246094 C247.149736,250.45573 246.420576,250.560547 245.71875,250.560547 C243.166654,250.560547 241.890625,249.152358 241.890625,246.335938 L241.890625,237.955078 L239.457031,237.955078 L239.457031,235.494141 L241.890625,235.494141 L241.890625,231.898438 L245.212891,231.898438 L245.212891,231.898438 Z M258.652344,246.267578 C258.652344,245.675127 258.408531,245.22396 257.920898,244.914062 C257.433266,244.604165 256.624355,244.33073 255.494141,244.09375 C254.363927,243.85677 253.420577,243.555991 252.664062,243.191406 C251.0052,242.389319 250.175781,241.227221 250.175781,239.705078 C250.175781,238.42903 250.713536,237.362634 251.789062,236.505859 C252.864589,235.649084 254.231763,235.220703 255.890625,235.220703 C257.658863,235.220703 259.08756,235.658199 260.176758,236.533203 C261.265956,237.408208 261.810547,238.542962 261.810547,239.9375 L258.488281,239.9375 C258.488281,239.299476 258.251304,238.768557 257.777344,238.344727 C257.303383,237.920896 256.674483,237.708984 255.890625,237.708984 C255.161455,237.708984 254.566734,237.877602 254.106445,238.214844 C253.646157,238.552085 253.416016,239.003252 253.416016,239.568359 C253.416016,240.078779 253.630206,240.475259 254.058594,240.757812 C254.486981,241.040366 255.352858,241.325194 256.65625,241.612305 C257.959642,241.899415 258.982744,242.241209 259.725586,242.637695 C260.468428,243.034182 261.019855,243.510414 261.379883,244.066406 C261.739911,244.622399 261.919922,245.296871 261.919922,246.089844 C261.919922,247.42058 261.368495,248.498368 260.265625,249.323242 C259.162755,250.148116 257.718108,250.560547 255.931641,250.560547 C254.719395,250.560547 253.639328,250.341799 252.691406,249.904297 C251.743485,249.466795 251.005211,248.865238 250.476562,248.099609 C249.947914,247.333981 249.683594,246.509119 249.683594,245.625 L252.910156,245.625 C252.955729,246.408858 253.25195,247.012693 253.798828,247.436523 C254.345706,247.860354 255.070308,248.072266 255.972656,248.072266 C256.847661,248.072266 257.513019,247.905926 257.96875,247.573242 C258.424481,247.240558 258.652344,246.805341 258.652344,246.267578 L258.652344,246.267578 L258.652344,246.267578 Z M292.175781,243.164062 L284.998047,243.164062 L284.998047,240.484375 L292.175781,240.484375 L292.175781,243.164062 L292.175781,243.164062 Z" id="----Digital-crafts--" opacity="0.8" fill="#FFFFFF" sketch:type="MSShapeGroup"></path>
            <path d="M74.6945148,277.83433 C73.9325228,278.329026 73.1839559,278.517038 72.4487918,278.398371 C71.7136277,278.279704 71.0493838,277.862511 70.45604,277.14678 C69.8128355,276.370904 69.5755755,275.518557 69.7442531,274.589714 C69.9129306,273.66087 70.4633884,272.81004 71.3956429,272.037197 L72.027167,271.513661 C72.6376433,271.007574 73.2648048,270.671585 73.9086702,270.505684 C74.5525357,270.339783 75.1642964,270.353977 75.7439709,270.548269 C76.3236453,270.74256 76.831616,271.102837 77.2678982,271.62911 C77.8462837,272.326797 78.1152644,273.047563 78.0748483,273.79143 C78.0344322,274.535297 77.6985665,275.227257 77.067241,275.867331 L76.3455093,274.99673 C76.8064487,274.487759 77.0501139,274.010498 77.0765122,273.564934 C77.1029106,273.119369 76.9291343,272.671048 76.5551781,272.219957 C76.0964586,271.666619 75.5323514,271.402351 74.8628395,271.427144 C74.1933277,271.451938 73.4811697,271.777207 72.7263443,272.40296 L72.0903093,272.930235 C71.3775857,273.521086 70.934127,274.139875 70.7599199,274.786621 C70.5857128,275.433366 70.7204879,276.024378 71.1642492,276.559672 C71.5631357,277.040836 71.9781639,277.319602 72.4093462,277.395978 C72.8405284,277.472354 73.3616689,277.328273 73.9727831,276.963729 L74.6945148,277.83433 L74.6945148,277.83433 Z M75.8399673,278.110267 C76.3009125,277.693984 76.7972823,277.410191 77.3290916,277.258878 C77.8609009,277.107566 78.3727749,277.103205 78.8647288,277.245795 C79.3566827,277.388386 79.7898492,277.666958 80.1642413,278.081519 C80.7428472,278.722203 80.989058,279.44068 80.9028812,280.236971 C80.8167043,281.033261 80.4054457,281.763898 79.6690929,282.428902 L79.6125621,282.479955 C79.1545159,282.893619 78.6643879,283.177039 78.1421634,283.330222 C77.6199389,283.483406 77.1100987,283.488562 76.6126276,283.34569 C76.1151565,283.202819 75.6753044,282.919758 75.2930579,282.4965 C74.7170702,281.858714 74.4721684,281.141687 74.5583452,280.345396 C74.6445221,279.549106 75.0528818,278.821088 75.7834365,278.16132 L75.8399673,278.110267 L75.8399673,278.110267 Z M76.4747534,279.005489 C75.9529286,279.476751 75.6433307,279.976098 75.5459503,280.503542 C75.4485699,281.030987 75.5831465,281.497634 75.9496842,281.903497 C76.31884,282.31226 76.7722346,282.492297 77.3098816,282.443613 C77.8475285,282.39493 78.4047968,282.110088 78.9817031,281.589081 C79.4977299,281.123055 79.805294,280.622914 79.9044048,280.088643 C80.0035156,279.554372 79.8698042,279.084312 79.5032665,278.678448 C79.1445832,278.281282 78.69729,278.10363 78.1613735,278.145487 C77.6254569,278.187345 77.0632559,278.474009 76.4747534,279.005489 L76.4747534,279.005489 L76.4747534,279.005489 Z M80.4571948,283.009865 C81.1536568,282.330887 81.8746347,281.949873 82.6201501,281.86681 C83.3656655,281.783748 83.9988247,282.00933 84.5196467,282.543564 C85.0377418,283.075001 85.266317,283.673189 85.2053789,284.338146 L87.5716598,282.031271 L88.3283477,282.807445 L81.8840083,289.089999 L81.1886735,288.376758 L81.6385435,287.864535 C80.9554699,287.924911 80.3439874,287.678196 79.8040777,287.124383 C79.2914362,286.59854 79.0889263,285.959939 79.1965421,285.20856 C79.3041579,284.457182 79.7047923,283.743378 80.3984573,283.067127 L80.4571948,283.009865 L80.4571948,283.009865 Z M81.1257765,283.871933 C80.6111218,284.373667 80.3119721,284.872608 80.2283184,285.368772 C80.1446647,285.864936 80.2855324,286.300412 80.6509259,286.675215 C81.1308456,287.167494 81.7021989,287.311492 82.3650028,287.107215 L84.4501829,285.074383 C84.6518037,284.425026 84.5181098,283.859811 84.0490973,283.378721 C83.6782502,282.998324 83.2423698,282.844998 82.7414429,282.918739 C82.240516,282.99248 81.7019659,283.310208 81.1257765,283.871933 L81.1257765,283.871933 L81.1257765,283.871933 Z M85.005829,292.079982 C84.3824645,291.488416 84.0695525,290.802389 84.0670837,290.021879 C84.064615,289.241369 84.3887366,288.508275 85.0394583,287.822574 L85.1765932,287.678067 C85.6095114,287.221878 86.0831678,286.897255 86.5975765,286.70419 C87.1119852,286.511125 87.6218608,286.46186 88.1272185,286.556393 C88.6325762,286.650927 89.0680077,286.871627 89.433526,287.218499 C90.0313893,287.785864 90.3091942,288.423766 90.2669491,289.132224 C90.2247041,289.840682 89.8553703,290.561835 89.1589367,291.295705 L88.8483665,291.62297 L85.7329761,288.666503 C85.3140807,289.130615 85.0990043,289.622542 85.0877405,290.142299 C85.0764766,290.662056 85.2663516,291.107464 85.6573712,291.478536 C85.9350518,291.742052 86.2240045,291.908561 86.5242382,291.97807 C86.8244718,292.047578 87.1355723,292.057395 87.4575491,292.007521 L87.5828834,292.83731 C86.6355438,293.063812 85.7765343,292.811371 85.005829,292.079982 L85.005829,292.079982 L85.005829,292.079982 Z M88.8204524,287.864528 C88.5031032,287.563368 88.1271881,287.426074 87.692696,287.452643 C87.2582038,287.479213 86.8178265,287.676554 86.3715508,288.044674 L88.6751547,290.230766 L88.731622,290.171263 C89.0880937,289.750232 89.2741848,289.338501 89.2899007,288.93606 C89.3056167,288.533618 89.1491355,288.176444 88.8204524,287.864528 L88.8204524,287.864528 L88.8204524,287.864528 Z M93.1265157,298.912538 C93.1597914,298.776802 93.2652126,298.574219 93.4427825,298.304783 C92.7198612,298.377572 92.0919286,298.187661 91.5589659,297.735044 C91.0825747,297.330469 90.8062079,296.86387 90.7298571,296.335231 C90.6535063,295.806591 90.7910658,295.335347 91.1425397,294.921482 C91.5698713,294.418293 92.0930416,294.189969 92.7120664,294.236502 C93.3310911,294.283034 93.987466,294.600876 94.6812107,295.190038 L95.4851168,295.872753 L95.8075103,295.493131 C96.0527835,295.204319 96.1617694,294.900987 96.1344715,294.583126 C96.1071736,294.265264 95.9253017,293.963473 95.5888504,293.677742 C95.2940834,293.427412 94.9837454,293.291977 94.6578271,293.271434 C94.3319088,293.250891 94.0791886,293.346317 93.8996587,293.557716 L93.0689558,292.852243 C93.2737715,292.61107 93.5572309,292.450784 93.9193424,292.371381 C94.281454,292.291978 94.6647722,292.311305 95.0693084,292.429363 C95.4738447,292.547422 95.8517764,292.755635 96.2031149,293.054008 C96.7598971,293.526854 97.0778765,294.036481 97.1570625,294.582902 C97.2362486,295.129324 97.0744546,295.651734 96.6716758,296.15015 L94.7828291,298.37429 C94.4060693,298.817929 94.1630066,299.218794 94.0536337,299.576895 L93.9929478,299.648353 L93.1265157,298.912538 L93.1265157,298.912538 Z M92.2902031,297.118402 C92.5492408,297.338389 92.8517687,297.480003 93.1977959,297.543248 C93.5438232,297.606493 93.8599665,297.575178 94.1462355,297.449303 L94.9882515,296.457818 L94.3406605,295.907853 C93.3283292,295.048133 92.5705803,294.91453 92.067391,295.507042 C91.8474038,295.76608 91.7618069,296.041871 91.8105978,296.334424 C91.8593888,296.626977 92.0192556,296.8883 92.2902031,297.118402 L92.2902031,297.118402 L92.2902031,297.118402 Z M99.9488547,296.128563 L99.4853195,296.777702 C100.242362,296.596456 100.928456,296.746625 101.543623,297.228214 C102.598635,298.054138 102.664816,299.06587 101.742171,300.263442 L99.1596663,303.562259 L98.3061264,302.894058 L100.892243,299.590628 C101.170896,299.228347 101.296902,298.89788 101.270266,298.599217 C101.243629,298.300553 101.059605,298.017585 100.718187,297.750303 C100.441362,297.533588 100.140585,297.417183 99.8158469,297.401083 C99.491109,297.384983 99.1763941,297.451139 98.871693,297.599552 L96.0869227,301.156737 L95.2333828,300.488537 L99.1414521,295.496482 L99.9488547,296.128563 L99.9488547,296.128563 Z M102.212589,301.661252 C102.780081,300.871301 103.423636,300.370483 104.143271,300.158783 C104.862907,299.947082 105.525688,300.058883 106.131634,300.494188 C106.734407,300.927215 107.063722,301.476421 107.119588,302.141823 L109.047685,299.457908 L109.928047,300.090351 L104.677059,307.399738 L103.868078,306.818574 L104.221808,306.235795 C103.559706,306.414276 102.914588,306.277888 102.286434,305.826629 C101.690005,305.398161 101.379315,304.804618 101.354354,304.045983 C101.329393,303.287347 101.599515,302.514652 102.164728,301.727874 L102.212589,301.661252 L102.212589,301.661252 Z M103.02116,302.393628 C102.601808,302.977367 102.394178,303.520803 102.398262,304.023952 C102.402347,304.527102 102.616943,304.93137 103.042057,305.236767 C103.600416,305.637886 104.18812,305.680121 104.805187,305.363473 L106.504237,302.998392 C106.589621,302.323837 106.359481,301.790565 105.813813,301.398563 C105.382354,301.088607 104.926424,301.013581 104.446011,301.173482 C103.965597,301.333383 103.490652,301.740094 103.02116,302.393628 L103.02116,302.393628 L103.02116,302.393628 Z M110.144319,306.952826 C110.661519,306.12907 111.272638,305.58915 111.977694,305.333048 C112.68275,305.076946 113.351207,305.147258 113.983084,305.543986 C114.611653,305.938636 114.974528,306.46627 115.07172,307.126902 L116.828945,304.328132 L117.746982,304.904527 L112.961346,312.526711 L112.117745,311.997051 L112.434499,311.393376 C111.784796,311.61274 111.132436,311.516789 110.477402,311.105522 C109.85545,310.715025 109.508402,310.141981 109.436248,309.386372 C109.364095,308.630763 109.585576,307.842747 110.100699,307.022299 L110.144319,306.952826 L110.144319,306.952826 Z M110.996926,307.633431 C110.614738,308.24215 110.441351,308.79746 110.476759,309.299379 C110.512167,309.801298 110.751521,310.191418 111.194827,310.469751 C111.77708,310.835322 112.366274,310.840878 112.962426,310.48642 L114.510903,308.020127 C114.554116,307.341564 114.291216,306.823659 113.722196,306.466396 C113.272273,306.183909 112.812556,306.13742 112.343032,306.326926 C111.873508,306.516433 111.424811,306.95193 110.996926,307.633431 L110.996926,307.633431 L110.996926,307.633431 Z M116.7174,314.665118 C115.970005,314.240933 115.50121,313.650359 115.311001,312.893376 C115.120793,312.136394 115.258988,311.346847 115.725591,310.524712 L115.823925,310.351453 C116.134351,309.804495 116.515977,309.375436 116.968814,309.064263 C117.421651,308.753089 117.904691,308.582581 118.417948,308.552734 C118.931204,308.522887 119.406948,308.632325 119.845193,308.881052 C120.562014,309.287884 120.985153,309.840195 121.114623,310.538002 C121.244094,311.23581 121.059142,312.024646 120.559761,312.904534 L120.337065,313.296915 L116.601805,311.176965 C116.306896,311.728238 116.21651,312.257464 116.330645,312.764659 C116.44478,313.271855 116.736253,313.658487 117.205074,313.924566 C117.538005,314.113521 117.858534,314.205608 118.166672,314.20083 C118.474809,314.196051 118.779131,314.130721 119.079647,314.004836 L119.400968,314.780084 C118.535966,315.227887 117.641453,315.189565 116.7174,314.665118 L116.7174,314.665118 L116.7174,314.665118 Z M119.405586,309.655622 C119.025094,309.439673 118.627187,309.396869 118.211855,309.527208 C117.796522,309.657548 117.41657,309.955058 117.071987,310.419748 L119.833939,311.987296 L119.87443,311.915954 C120.119116,311.421517 120.200665,310.977105 120.119081,310.582707 C120.037496,310.188308 119.799667,309.879283 119.405586,309.655622 L119.405586,309.655622 L119.405586,309.655622 Z M124.146597,316.440277 C124.280265,316.179577 124.285884,315.926756 124.163453,315.681805 C124.041022,315.436855 123.762356,315.137042 123.327445,314.782357 C122.892535,314.427672 122.569127,314.103821 122.357211,313.810794 C122.145296,313.517767 122.022374,313.235255 121.988442,312.963249 C121.95451,312.691242 122.008833,312.416203 122.151412,312.138123 C122.38845,311.675816 122.784472,311.385022 123.339487,311.265732 C123.894503,311.146443 124.476152,311.242742 125.084452,311.554635 C125.724035,311.882567 126.158165,312.31367 126.386854,312.847957 C126.615542,313.382243 126.598001,313.906602 126.334229,314.42105 L125.364431,313.923807 C125.499881,313.659631 125.504517,313.37448 125.378339,313.068346 C125.25216,312.762211 125.01875,312.521818 124.678103,312.347158 C124.327027,312.167152 124.013219,312.102828 123.736668,312.154184 C123.460118,312.20554 123.258576,312.354613 123.132037,312.601409 C123.012627,312.834301 123.014737,313.057065 123.138369,313.269708 C123.262,313.48235 123.5369,313.765966 123.963076,314.120562 C124.389252,314.475158 124.713485,314.803822 124.935785,315.106563 C125.158084,315.409303 125.287446,315.7028 125.323874,315.987061 C125.360302,316.271322 125.30099,316.564653 125.145935,316.867065 C124.88751,317.371085 124.478722,317.671795 123.919561,317.769205 C123.360399,317.866614 122.759297,317.750463 122.116238,317.420749 C121.664358,317.189057 121.305615,316.904156 121.039999,316.566036 C120.774382,316.227916 120.616897,315.865128 120.567538,315.477662 C120.518179,315.090195 120.579046,314.729619 120.750141,314.395924 L121.714726,314.890493 C121.566357,315.222672 121.564398,315.545411 121.708848,315.858718 C121.853297,316.172026 122.12365,316.430264 122.519913,316.633439 C122.884893,316.820575 123.215614,316.896863 123.512085,316.862305 C123.808556,316.827747 124.020058,316.687073 124.146597,316.440277 L124.146597,316.440277 L124.146597,316.440277 Z M126.743654,319.421759 L125.759158,318.96812 L128.412333,313.210144 L129.39683,313.663784 L126.743654,319.421759 L126.743654,319.421759 Z M129.036263,311.646063 C129.109826,311.486414 129.220726,311.374079 129.368966,311.309054 C129.517207,311.244029 129.687114,311.255654 129.878692,311.34393 C130.070271,311.432206 130.190389,311.554219 130.239049,311.709972 C130.287709,311.865726 130.275257,312.023424 130.201694,312.183073 C130.12813,312.342722 130.017161,312.452875 129.868781,312.513535 C129.720402,312.574194 129.550425,312.560386 129.358847,312.47211 C129.167268,312.383834 129.04722,312.264004 128.998699,312.112616 C128.950178,311.961228 128.962699,311.805712 129.036263,311.646063 L129.036263,311.646063 L129.036263,311.646063 Z M129.390566,317.049465 C129.786152,316.143804 130.310228,315.514872 130.962807,315.162648 C131.615386,314.810425 132.287105,314.785199 132.977984,315.086971 C133.686762,315.396561 134.130365,315.888705 134.308809,316.563419 L134.638578,315.940187 L135.546023,316.336554 L133.069318,322.006746 C132.740965,322.75848 132.259364,323.253578 131.6245,323.492053 C130.989635,323.730529 130.296346,323.685591 129.544612,323.357238 C129.125789,323.174299 128.75501,322.90578 128.432265,322.551675 C128.109519,322.197569 127.910565,321.81868 127.835395,321.414996 L128.611203,321.044136 C128.807338,321.756416 129.213253,322.247018 129.828959,322.515954 C130.312216,322.727038 130.748388,322.755577 131.137487,322.601571 C131.526585,322.447566 131.829017,322.12357 132.044792,321.629573 L132.262911,321.13021 C131.665427,321.414851 131.023045,321.407068 130.335745,321.10686 C129.655605,320.809779 129.224849,320.29554 129.043465,319.564127 C128.86208,318.832714 128.977779,317.994501 129.390566,317.049465 L129.390566,317.049465 L129.390566,317.049465 Z M130.34004,317.598462 C130.053904,318.253544 129.963378,318.82675 130.06846,319.318096 C130.173542,319.809442 130.467707,320.160651 130.950965,320.371735 C131.57741,320.645363 132.161695,320.561699 132.70384,320.120743 L133.86245,317.46821 C133.800532,316.780454 133.465305,316.303679 132.856759,316.037869 C132.373501,315.826785 131.913763,315.84976 131.477531,316.106795 C131.041298,316.363829 130.662138,316.861047 130.34004,317.598462 L130.34004,317.598462 L130.34004,317.598462 Z M137.790382,317.060428 L137.538577,317.817291 C138.208668,317.421132 138.90856,317.362584 139.638273,317.641646 C140.889733,318.120237 141.250937,319.067609 140.721899,320.483791 L139.225438,324.396862 L138.212965,324.009666 L139.711519,320.091122 C139.871121,319.662844 139.894216,319.309924 139.780803,319.03235 C139.667391,318.754777 139.408193,318.538554 139.003202,318.383674 C138.67483,318.258097 138.353111,318.235433 138.038033,318.315684 C137.722956,318.395934 137.441682,318.55184 137.194202,318.783407 L135.580536,323.002956 L134.568063,322.61576 L136.832637,316.694162 L137.790382,317.060428 L137.790382,317.060428 Z M144.174141,325.845229 L145.787924,320.585268 L144.83004,320.291384 L145.075803,319.490347 L146.033687,319.784231 L146.224454,319.162446 C146.423815,318.51265 146.751566,318.063649 147.207717,317.815431 C147.663868,317.567212 148.209365,317.540492 148.844223,317.73527 C149.083229,317.808598 149.310625,317.913094 149.526418,318.048762 L149.212608,318.871826 C149.0474,318.784365 148.865836,318.710274 148.66791,318.649549 C148.331808,318.546431 148.042191,318.564831 147.799051,318.704748 C147.55591,318.844665 147.378201,319.097609 147.265917,319.463586 L147.069995,320.102175 L148.363979,320.499176 L148.118216,321.300214 L146.824232,320.903213 L145.210448,326.163174 L144.174141,325.845229 L144.174141,325.845229 Z M152.044066,322.463404 C151.893106,322.39358 151.725342,322.33332 151.540772,322.282621 C150.855223,322.094311 150.309851,322.258449 149.904638,322.775041 L148.712701,327.114314 L147.667433,326.827193 L149.346699,320.713791 L150.363716,320.993152 L150.186666,321.704069 C150.679468,321.252046 151.240384,321.112432 151.869431,321.285222 C152.072835,321.341095 152.220027,321.409882 152.311011,321.491588 L152.044066,322.463404 L152.044066,322.463404 Z M151.986373,324.593252 C152.133886,323.989927 152.385129,323.476314 152.74011,323.052397 C153.095091,322.62848 153.516126,322.337339 154.003227,322.178963 C154.490329,322.020587 155.005179,322.007734 155.547792,322.140403 C156.386376,322.345437 156.99366,322.801545 157.369662,323.508742 C157.745665,324.215938 157.81584,325.051425 157.580191,326.015228 L157.5621,326.08922 C157.415514,326.688751 157.169225,327.198549 156.823225,327.618629 C156.477225,328.038709 156.058319,328.329366 155.566495,328.490609 C155.074671,328.651851 154.551769,328.664746 153.997772,328.529294 C153.162983,328.325188 152.557596,327.869544 152.181593,327.162347 C151.805591,326.45515 151.734488,325.623458 151.968282,324.667244 L151.986373,324.593252 L151.986373,324.593252 Z M153.014417,324.977312 C152.847421,325.660322 152.87178,326.247351 153.087496,326.738419 C153.303211,327.229487 153.676678,327.539959 154.207907,327.669845 C154.742932,327.800658 155.219167,327.694922 155.636627,327.352634 C156.054087,327.010345 156.355124,326.461657 156.539747,325.706552 C156.704888,325.031131 156.678399,324.444586 156.460281,323.946899 C156.242163,323.449212 155.867494,323.13543 155.336265,323.005544 C154.816419,322.878442 154.346571,322.982723 153.926708,323.318392 C153.506845,323.654061 153.202751,324.207029 153.014417,324.977312 L153.014417,324.977312 L153.014417,324.977312 Z M160.392918,323.187025 L160.288531,323.882975 C160.84853,323.434023 161.515914,323.284264 162.290702,323.433693 C163.16138,323.601616 163.689612,324.049597 163.875414,324.777648 C164.140236,324.518419 164.456285,324.328747 164.823571,324.208627 C165.190857,324.088508 165.600793,324.072093 166.053393,324.159383 C167.418861,324.422734 167.973651,325.279623 167.717779,326.730078 L166.913306,330.901256 L165.848937,330.695976 L166.641204,326.588085 C166.727014,326.143157 166.689545,325.790822 166.528795,325.531069 C166.368044,325.271317 166.04795,325.095208 165.568502,325.00274 C165.173436,324.926546 164.822752,324.981241 164.516438,325.166826 C164.210123,325.352412 163.997407,325.640582 163.878281,326.031346 L163.081576,330.16225 L162.011453,329.955861 L162.798172,325.876737 C162.972753,324.971539 162.617038,324.433507 161.731018,324.262625 C161.032941,324.127991 160.498089,324.333147 160.126443,324.878099 L159.249845,329.423245 L158.185476,329.217965 L159.386082,322.992842 L160.392918,323.187025 L160.392918,323.187025 Z M173.733525,323.336744 L173.591474,324.865314 L174.769989,324.974834 L174.692458,325.80913 L173.513942,325.699609 L173.150138,329.614382 C173.126643,329.8672 173.16153,330.061691 173.2548,330.197859 C173.348069,330.334027 173.52111,330.413858 173.773929,330.437352 C173.898393,330.448919 174.071697,330.441486 174.293847,330.415053 L174.21252,331.290189 C173.921357,331.341593 173.641591,331.354824 173.373215,331.329884 C172.890916,331.285063 172.540806,331.105413 172.322876,330.790928 C172.104947,330.476443 172.020923,330.050831 172.070804,329.514078 L172.434608,325.599306 L171.285263,325.492496 L171.362795,324.6582 L172.51214,324.76501 L172.654192,323.23644 L173.733525,323.336744 L173.733525,323.336744 Z M176.896005,325.834373 C177.413235,325.276479 178.055819,325.022156 178.823777,325.071397 C180.160882,325.157131 180.786906,325.954675 180.701869,327.464053 L180.433796,331.644921 L179.352033,331.575559 L179.620481,327.388844 C179.645827,326.932498 179.563171,326.588617 179.372509,326.357191 C179.181848,326.125766 178.870168,325.996183 178.437461,325.968438 C178.086617,325.945942 177.77266,326.019753 177.49558,326.189873 C177.2185,326.359993 176.996149,326.592333 176.828518,326.886899 L176.539449,331.395219 L175.457686,331.325858 L176.033575,322.344301 L177.115338,322.413663 L176.896005,325.834373 L176.896005,325.834373 Z M184.678161,331.709023 C183.818891,331.695349 183.124258,331.402035 182.594243,330.829073 C182.064228,330.256111 181.806745,329.497043 181.821787,328.551845 L181.824956,328.352652 C181.834964,327.723822 181.963999,327.164286 182.212067,326.674028 C182.460135,326.183771 182.80218,325.80245 183.238212,325.530055 C183.674245,325.257661 184.144176,325.125474 184.648021,325.133493 C185.47214,325.146608 186.108358,325.428248 186.556693,325.978423 C187.005029,326.528598 187.221145,327.309472 187.205046,328.321068 L187.197867,328.772182 L182.903489,328.703842 C182.909167,329.329015 183.083726,329.836734 183.427171,330.227016 C183.770615,330.617298 184.211829,330.816725 184.750826,330.825302 C185.133592,330.831393 185.45901,330.758438 185.727088,330.606434 C185.995167,330.454429 186.230852,330.251125 186.434149,329.996513 L187.08797,330.522609 C186.543794,331.330462 185.740532,331.72593 184.678161,331.709023 L184.678161,331.709023 L184.678161,331.709023 Z M184.63385,326.024005 C184.196403,326.017043 183.826733,326.170359 183.524828,326.483955 C183.222924,326.797552 183.032254,327.240859 182.952813,327.813889 L186.128192,327.864422 L186.129497,327.782401 C186.107015,327.23119 185.965388,326.802128 185.704613,326.495204 C185.443837,326.18828 185.08692,326.031215 184.63385,326.024005 L184.63385,326.024005 L184.63385,326.024005 Z M198.105386,330.97411 L196.976065,331.033061 L192.344274,324.691671 L192.686982,331.256951 L191.55766,331.315902 L191.112934,322.796252 L192.242256,322.737301 L196.887276,329.107337 L196.543041,322.5128 L197.66066,322.45446 L198.105386,330.97411 L198.105386,330.97411 Z M202.529562,330.380593 C201.675775,330.478479 200.948968,330.277735 200.349118,329.778353 C199.749268,329.278972 199.395511,328.55971 199.287837,327.620545 L199.265145,327.422622 C199.19351,326.797806 199.248886,326.226261 199.431274,325.70797 C199.613661,325.18968 199.903361,324.767218 200.300382,324.440572 C200.697403,324.113926 201.146221,323.921907 201.64685,323.864511 C202.465709,323.770629 203.133081,323.967376 203.648986,324.454756 C204.164891,324.942136 204.480458,325.688385 204.595697,326.693524 L204.647086,327.14176 L200.380116,327.630964 C200.466829,328.25012 200.705763,328.730911 201.096925,329.073353 C201.488087,329.415795 201.95144,329.556313 202.486997,329.494912 C202.86732,329.451308 203.180527,329.336763 203.426627,329.151274 C203.672727,328.965784 203.880053,328.733629 204.04861,328.454802 L204.765142,328.891655 C204.330338,329.763263 203.585152,330.259571 202.529562,330.380593 L202.529562,330.380593 L202.529562,330.380593 Z M201.748295,324.749339 C201.31364,324.799172 200.966977,324.999138 200.708295,325.349242 C200.449613,325.699346 200.318049,326.163638 200.313599,326.742131 L203.468712,326.3804 L203.459368,326.298903 C203.365586,325.755263 203.169507,325.348194 202.871127,325.077684 C202.572747,324.807174 202.198473,324.697727 201.748295,324.749339 L201.748295,324.749339 L201.748295,324.749339 Z M206.389373,321.649748 L206.633851,323.165312 L207.802339,322.976822 L207.935775,323.804019 L206.767287,323.992509 L207.39341,327.873974 C207.433845,328.124641 207.516232,328.304241 207.640573,328.412778 C207.764914,328.521315 207.952415,328.555366 208.203082,328.514931 C208.326488,328.495024 208.492435,328.444515 208.700929,328.363401 L208.840897,329.231091 C208.57182,329.353631 208.30424,329.436362 208.038147,329.479285 C207.559951,329.556424 207.176054,329.469974 206.886443,329.219934 C206.596833,328.969894 206.409107,328.578787 206.323259,328.046601 L205.697136,324.165137 L204.557571,324.348961 L204.424134,323.521764 L205.5637,323.337939 L205.319223,321.822375 L206.389373,321.649748 L206.389373,321.649748 Z M210.079307,323.278966 C210.441025,322.609689 210.999859,322.203119 211.755824,322.059243 C213.072049,321.808738 213.877224,322.424916 214.171376,323.907794 L214.954656,328.023373 L213.889786,328.22604 L213.105411,324.104705 C213.016124,323.656461 212.850302,323.344068 212.607941,323.167517 C212.365579,322.990966 212.031428,322.943224 211.605478,323.024292 C211.260113,323.090022 210.974492,323.239813 210.748605,323.473671 C210.522719,323.707528 210.365351,323.987987 210.276496,324.315056 L211.121124,328.752974 L210.056254,328.955641 L208.373571,320.114341 L209.438441,319.911674 L210.079307,323.278966 L210.079307,323.278966 Z M219.100026,327.029796 C218.26429,327.22999 217.51857,327.118414 216.862844,326.695063 C216.207118,326.271713 215.769155,325.600393 215.548941,324.681083 L215.502533,324.487345 C215.356027,323.875738 215.342032,323.301688 215.460546,322.765176 C215.579061,322.228664 215.815667,321.774332 216.170371,321.402165 C216.525075,321.029999 216.947444,320.785226 217.437489,320.66784 C218.239036,320.475835 218.925273,320.590614 219.496219,321.012181 C220.067165,321.433747 220.470473,322.136464 220.706157,323.120354 L220.811258,323.559113 L216.634497,324.559625 C216.795288,325.163793 217.090492,325.61224 217.520117,325.904979 C217.949742,326.197718 218.426665,326.281298 218.950899,326.155722 C219.323182,326.066545 219.620279,325.915043 219.842198,325.701213 C220.064118,325.487382 220.241915,325.231906 220.375595,324.934777 L221.139605,325.281976 C220.813153,326.199682 220.1333,326.782283 219.100026,327.029796 L219.100026,327.029796 L219.100026,327.029796 Z M217.644962,321.533962 C217.219497,321.635879 216.899496,321.876214 216.68495,322.254974 C216.470404,322.633735 216.395826,323.110509 216.461213,323.685313 L219.549623,322.945507 L219.530514,322.865733 C219.371817,322.337382 219.128052,321.956948 218.79921,321.724419 C218.470369,321.49189 218.085623,321.428405 217.644962,321.533962 L217.644962,321.533962 L217.644962,321.533962 Z M224.103354,319.872965 C223.938119,319.891989 223.763522,319.927927 223.579557,319.980783 C222.896259,320.177102 222.516196,320.601277 222.439356,321.25332 L223.681986,325.578349 L222.64015,325.87768 L220.889465,319.784346 L221.903144,319.493105 L222.122289,320.192194 C222.30753,319.549649 222.713635,319.138313 223.340618,318.958174 C223.543354,318.899925 223.704832,318.88198 223.825057,318.904339 L224.103354,319.872965 L224.103354,319.872965 Z M227.639924,324.32254 L226.606975,324.651232 L223.877945,316.074962 L224.910894,315.74627 L227.639924,324.32254 L227.639924,324.32254 Z M232.981275,322.491981 C232.881815,322.393801 232.76197,322.199403 232.621734,321.908781 C232.313465,322.56672 231.82839,323.008386 231.166496,323.23379 C230.574858,323.435269 230.032558,323.433222 229.539578,323.22765 C229.046599,323.022077 228.712597,322.662304 228.537562,322.148318 C228.32475,321.523401 228.397052,320.957175 228.754472,320.449624 C229.111892,319.942073 229.721379,319.541602 230.582951,319.248198 L231.581335,318.908204 L231.420782,318.436745 C231.298635,318.078065 231.094127,317.828937 230.807252,317.689353 C230.520377,317.549769 230.168023,317.551125 229.750179,317.693419 C229.384103,317.818084 229.108676,318.015042 228.92389,318.284298 C228.739104,318.553554 228.691415,318.819448 228.780821,319.081987 L227.749158,319.433314 C227.647159,319.133798 227.654933,318.808251 227.77248,318.456666 C227.890027,318.10508 228.103207,317.785924 228.412028,317.499189 C228.720848,317.212453 229.093419,316.994793 229.529751,316.846202 C230.221228,316.610723 230.821807,316.599114 231.331506,316.811372 C231.841205,317.023631 232.206703,317.430449 232.42801,318.031841 L233.36866,320.794036 C233.556287,321.344998 233.775761,321.759248 234.027089,322.036798 L234.05731,322.125543 L232.981275,322.491981 L232.981275,322.491981 Z M231.012147,322.289792 C231.33385,322.180238 231.610576,321.993154 231.842334,321.728535 C232.074091,321.463916 232.209346,321.176456 232.248101,320.866145 L231.828775,319.634805 L231.024521,319.90869 C229.767291,320.336832 229.263978,320.91882 229.514568,321.654669 C229.624122,321.976372 229.816982,322.191297 230.093154,322.29945 C230.369325,322.407603 230.675653,322.404384 231.012147,322.289792 L231.012147,322.289792 L231.012147,322.289792 Z M234.038811,315.199266 L234.361926,315.928542 C234.590947,315.184557 235.06922,314.670232 235.796759,314.385548 C237.044489,313.897317 237.949228,314.354953 238.511003,315.758471 L240.037608,319.65988 L239.028153,320.054876 L237.499412,316.14801 C237.329235,315.723823 237.108804,315.447243 236.838114,315.318262 C236.567424,315.18928 236.230191,315.203789 235.826407,315.361788 C235.499015,315.489895 235.245802,315.689647 235.066763,315.961048 C234.887724,316.23245 234.784603,316.537061 234.757397,316.874891 L236.403569,321.081865 L235.394113,321.476861 L233.083921,315.572911 L234.038811,315.199266 L234.038811,315.199266 Z M239.940617,316.054748 C239.546075,315.1657 239.439438,314.357239 239.620701,313.62934 C239.801964,312.901442 240.23357,312.38618 240.91553,312.083539 C241.59392,311.782483 242.23426,311.776096 242.836568,312.064378 L241.496083,309.043772 L242.486885,308.604074 L246.137567,316.830404 L245.227101,317.234451 L244.903197,316.634583 C244.722367,317.296047 244.278482,317.783638 243.571528,318.09737 C242.900279,318.395257 242.231107,318.363157 241.563992,318.001068 C240.896877,317.638979 240.366849,317.015205 239.973892,316.129727 L239.940617,316.054748 L239.940617,316.054748 Z M240.981331,315.727519 C241.27288,316.384486 241.636721,316.838416 242.072865,317.089323 C242.50901,317.34023 242.966297,317.359521 243.444741,317.147198 C244.073144,316.868325 244.406769,316.382655 244.445626,315.690176 L243.264383,313.028401 C242.725604,312.613632 242.149162,312.542516 241.535041,312.815051 C241.049457,313.030544 240.754177,313.385946 240.649194,313.881268 C240.544211,314.376591 240.654922,314.992001 240.981331,315.727519 L240.981331,315.727519 L240.981331,315.727519 Z M250.154902,312.820734 C250.02415,312.558559 249.82385,312.404189 249.553996,312.35762 C249.284141,312.31105 248.8775,312.3578 248.334059,312.497873 C247.790618,312.637945 247.338098,312.706485 246.976485,312.703495 C246.614872,312.700505 246.314473,312.632068 246.075279,312.498183 C245.836086,312.364297 245.646758,312.157531 245.507289,311.877878 C245.275422,311.412956 245.275924,310.921637 245.508796,310.403909 C245.741669,309.88618 246.163969,309.474777 246.775709,309.169689 C247.41891,308.84891 248.023438,308.754759 248.58931,308.887232 C249.155183,309.019704 249.567121,309.344615 249.825139,309.861972 L248.849855,310.348368 C248.71736,310.082697 248.490438,309.909958 248.169083,309.830143 C247.847728,309.750329 247.515768,309.795846 247.173194,309.966695 C246.820132,310.142775 246.582333,310.357402 246.459788,310.610582 C246.337243,310.863763 246.33786,311.114445 246.461639,311.362637 C246.578444,311.596846 246.759116,311.727176 247.00366,311.75363 C247.248205,311.780085 247.639567,311.726767 248.17776,311.593677 C248.715953,311.460587 249.172839,311.394235 249.54843,311.394619 C249.924021,311.395003 250.237084,311.464763 250.487627,311.603901 C250.73817,311.743039 250.939275,311.964666 251.090947,312.268788 C251.343735,312.775659 251.343652,313.283137 251.0907,313.791237 C250.837748,314.299337 250.38793,314.714642 249.741233,315.037163 C249.286797,315.263801 248.844706,315.383885 248.414945,315.397421 C247.985185,315.410957 247.599644,315.32278 247.258312,315.132888 C246.91698,314.942996 246.662637,314.680263 246.495274,314.344679 L247.465314,313.860899 C247.644925,314.177278 247.903708,314.37014 248.241669,314.43949 C248.579631,314.50884 248.947858,314.444144 249.346364,314.245401 C249.713408,314.062348 249.970867,313.84119 250.118748,313.581921 C250.26663,313.322652 250.278681,313.068926 250.154902,312.820734 L250.154902,312.820734 L250.154902,312.820734 Z M253.851749,314.578499 L253.109356,314.505397 C253.184436,313.880057 253.09797,313.32576 252.849955,312.842489 L252.378323,311.985135 L253.307551,311.473965 L253.717052,312.218374 C253.907212,312.564056 254.012661,312.95633 254.033403,313.395209 C254.054145,313.834087 253.993594,314.228513 253.851749,314.578499 L253.851749,314.578499 L253.851749,314.578499 Z M259.987153,307.065925 C259.837264,306.814201 259.626038,306.675156 259.353467,306.648785 C259.080897,306.622414 258.678859,306.699279 258.147341,306.879382 C257.615823,307.059485 257.169653,307.161491 256.808819,307.185404 C256.447986,307.209316 256.143329,307.163411 255.89484,307.047686 C255.646351,306.931961 255.442169,306.739849 255.282288,306.471344 C255.016484,306.024954 254.980444,305.534959 255.174166,305.001344 C255.367887,304.46773 255.75842,304.026058 256.345775,303.676317 C256.963337,303.308589 257.559188,303.169737 258.133346,303.259757 C258.707504,303.349776 259.142466,303.643149 259.438248,304.139884 L258.50184,304.697468 C258.349953,304.442388 258.110812,304.287004 257.784411,304.231311 C257.45801,304.175618 257.130355,304.245698 256.801436,304.441553 C256.462448,304.643404 256.24127,304.875123 256.137895,305.136716 C256.034519,305.39831 256.053779,305.648252 256.195674,305.886551 C256.329575,306.111424 256.51944,306.227955 256.765274,306.236148 C257.011109,306.244341 257.397422,306.162065 257.924226,305.989315 C258.45103,305.816566 258.901715,305.716417 259.276294,305.688866 C259.650874,305.661315 259.968258,305.707598 260.228455,305.827716 C260.488653,305.947835 260.705684,306.153891 260.879555,306.44589 C261.169341,306.932556 261.207002,307.438634 260.99254,307.96414 C260.778078,308.489646 260.360394,308.937256 259.739476,309.306982 C259.303154,309.56679 258.871219,309.719422 258.443655,309.764884 C258.016092,309.810345 257.625061,309.751087 257.270551,309.587107 C256.916041,309.423128 256.642861,309.180038 256.451003,308.857832 L257.382376,308.303245 C257.58502,308.60539 257.85743,308.778471 258.199613,308.822493 C258.541797,308.866515 258.904193,308.774612 259.286813,308.54678 C259.639226,308.336936 259.879523,308.097242 260.007712,307.827693 C260.135901,307.558143 260.129048,307.304223 259.987153,307.065925 L259.987153,307.065925 L259.987153,307.065925 Z M263.900659,306.461706 L262.991572,307.052115 L259.538478,301.735183 L260.447566,301.144774 L263.900659,306.461706 L263.900659,306.461706 Z M258.548837,300.37274 C258.453095,300.22532 258.417291,300.071579 258.441425,299.911514 C258.46556,299.751448 258.566077,299.613972 258.742982,299.499081 C258.919886,299.38419 259.087178,299.347737 259.244862,299.38972 C259.402546,299.431703 259.529257,299.526403 259.625,299.673824 C259.720742,299.821244 259.754663,299.973879 259.726763,300.131732 C259.698863,300.289585 259.596463,300.425955 259.419558,300.540846 C259.242654,300.655737 259.077245,300.693296 258.923327,300.653525 C258.769408,300.613755 258.64458,300.52016 258.548837,300.37274 L258.548837,300.37274 L258.548837,300.37274 Z M262.637293,299.652648 L263.112461,300.29332 C263.172765,299.517223 263.526615,298.910538 264.17402,298.473247 C265.284321,297.723293 266.267391,297.971397 267.123261,299.217567 L269.468224,302.689262 L268.569953,303.296001 L266.221711,299.81945 C265.962658,299.442904 265.686944,299.221393 265.394558,299.154908 C265.102172,299.088423 264.77633,299.176528 264.417019,299.419225 C264.125687,299.616006 263.92244,299.866421 263.807272,300.170477 C263.692104,300.474534 263.658289,300.794344 263.705825,301.129917 L266.23445,304.873521 L265.336179,305.48026 L261.787578,300.22659 L262.637293,299.652648 L262.637293,299.652648 Z M272.308016,299.521178 C272.61951,299.291995 272.822221,298.997362 272.916155,298.637269 C273.01009,298.277177 272.96547,297.946288 272.782293,297.644593 L273.608218,297.036914 C273.807779,297.341104 273.911968,297.693634 273.920789,298.094515 C273.92961,298.495396 273.836936,298.888503 273.642765,299.273849 C273.448593,299.659194 273.17846,299.979185 272.832356,300.233833 C272.137002,300.745443 271.413304,300.920251 270.66124,300.758262 C269.909176,300.596273 269.236837,300.112547 268.644202,299.307069 L268.536556,299.160763 C268.17079,298.663632 267.936784,298.154436 267.834533,297.633161 C267.732282,297.111885 267.773138,296.61869 267.957104,296.153559 C268.141069,295.688429 268.465881,295.284562 268.931548,294.941945 C269.504192,294.520619 270.106242,294.34196 270.737715,294.405962 C271.369189,294.469965 271.898906,294.766438 272.326884,295.295391 L271.500959,295.90307 C271.232715,295.591218 270.907983,295.411865 270.526755,295.365004 C270.145526,295.318143 269.789732,295.416247 269.45936,295.65932 C269.015718,295.985732 268.789463,296.398317 268.780587,296.897087 C268.771712,297.395857 268.989508,297.947288 269.433984,298.551396 L269.55552,298.716581 C269.988421,299.304958 270.442907,299.668907 270.918993,299.80844 C271.395078,299.947973 271.858081,299.852219 272.308016,299.521178 L272.308016,299.521178 L272.308016,299.521178 Z M277.825265,296.252644 C277.15263,296.787522 276.429701,297.001816 275.656458,296.895531 C274.883215,296.789246 274.20242,296.36616 273.614055,295.626261 L273.490061,295.470333 C273.098627,294.978086 272.843153,294.463826 272.723631,293.927538 C272.604108,293.39125 272.626352,292.879483 272.790363,292.392222 C272.954374,291.904961 273.23358,291.50452 273.627989,291.190887 C274.273107,290.677891 274.943489,290.491658 275.639155,290.632183 C276.33482,290.772709 276.997491,291.238902 277.627188,292.030778 L277.907998,292.38391 L274.546366,295.05707 C274.947598,295.536534 275.404767,295.818042 275.917887,295.901601 C276.431007,295.98516 276.898522,295.859185 277.320448,295.52367 C277.620077,295.285406 277.825215,295.022467 277.93587,294.734844 C278.046525,294.44722 278.099585,294.140521 278.095051,293.814736 L278.934208,293.806218 C279.026531,294.775873 278.656887,295.591341 277.825265,296.252644 L277.825265,296.252644 L277.825265,296.252644 Z M274.182314,291.887979 C273.839882,292.16028 273.65156,292.513404 273.617343,292.947361 C273.583126,293.381318 273.717196,293.844892 274.019558,294.338097 L276.505239,292.36149 L276.454183,292.297285 C276.086915,291.885636 275.705123,291.644003 275.308795,291.572378 C274.912466,291.500753 274.536976,291.605952 274.182314,291.887979 L274.182314,291.887979 L274.182314,291.887979 Z M286.894139,288.135187 L282.712767,291.844969 L282.195575,291.262032 L282.226952,286.847673 C282.224975,286.186223 282.18303,285.684267 282.101115,285.341788 C282.019201,284.999309 281.868066,284.703889 281.647708,284.455518 C281.352168,284.122409 281.00897,283.938644 280.618102,283.904216 C280.227234,283.869789 279.863791,284.00164 279.52776,284.299772 C279.124523,284.65753 278.912894,285.050254 278.892868,285.477954 C278.872842,285.905654 279.044299,286.324039 279.407242,286.73312 L278.596389,287.452522 C278.075306,286.865199 277.843236,286.222521 277.900171,285.524469 C277.957107,284.826417 278.302608,284.19612 278.936683,283.633557 C279.529851,283.107289 280.136872,282.846801 280.757765,282.852086 C281.378658,282.85737 281.918529,283.118606 282.377393,283.635801 C282.934771,284.264033 283.19812,285.367216 283.167448,286.945385 L283.102986,290.315967 L286.306951,287.473356 L286.894139,288.135187 L286.894139,288.135187 Z M289.001003,280.927753 C289.878846,281.844877 290.374527,282.676267 290.488061,283.421948 C290.601594,284.167629 290.325379,284.859183 289.659405,285.496632 C289.001898,286.125979 288.30647,286.373914 287.573102,286.240445 C286.839734,286.106977 286.052805,285.612487 285.212293,284.756962 L284.211557,283.711445 C283.344518,282.805609 282.85694,281.982684 282.748809,281.242647 C282.640677,280.502611 282.921005,279.812527 283.5898,279.172377 C284.252951,278.537629 284.944388,278.282699 285.66413,278.407581 C286.383872,278.532463 287.17203,279.033886 288.028627,279.911866 L289.001003,280.927753 L289.001003,280.927753 Z M287.192878,280.606379 C286.55813,279.943227 286.002459,279.549114 285.525848,279.424027 C285.049238,279.29894 284.609172,279.429521 284.205638,279.815772 C283.804925,280.199322 283.657365,280.629847 283.762953,281.107361 C283.868541,281.584876 284.218325,282.139559 284.812316,282.771427 L286.011579,284.024354 C286.649028,284.690327 287.216329,285.08953 287.7135,285.221973 C288.21067,285.354417 288.655372,285.232917 289.047619,284.857471 C289.434222,284.487426 289.578195,284.063038 289.47954,283.584294 C289.380886,283.10555 289.027877,282.540436 288.420502,281.888935 L287.192878,280.606379 L287.192878,280.606379 Z M293.529343,276.116275 C294.440304,277.000512 294.96621,277.81312 295.107076,278.554123 C295.247943,279.295127 294.997334,279.996367 294.355241,280.657865 C293.721311,281.310955 293.035467,281.584284 292.297689,281.477863 C291.55991,281.371441 290.755337,280.906212 289.883946,280.082159 L288.845456,279.074134 C287.945706,278.20078 287.428209,277.396334 287.292949,276.660772 C287.157688,275.92521 287.412461,275.225289 288.057273,274.560988 C288.696645,273.902292 289.378243,273.62212 290.10209,273.720461 C290.825936,273.818803 291.631992,274.290917 292.520283,275.136817 L293.529343,276.116275 L293.529343,276.116275 Z M291.710627,275.86158 C291.051932,275.222208 290.48215,274.848787 290.001264,274.741303 C289.520378,274.63382 289.085409,274.780488 288.696345,275.181311 C288.310001,275.579331 288.178366,276.014989 288.301435,276.4883 C288.424504,276.96161 288.79444,277.503061 289.411256,278.112669 L290.655763,279.320667 C291.317261,279.962759 291.898852,280.340839 292.400555,280.454919 C292.902258,280.568998 293.342193,280.431234 293.720375,280.041623 C294.093115,279.657618 294.22139,279.228225 294.105205,278.753431 C293.98902,278.278637 293.615477,277.72688 292.984565,277.098145 L291.710627,275.86158 L291.710627,275.86158 Z M297.000378,271.961034 C297.04847,272.309841 297.027972,272.655894 296.938884,272.999204 C296.849796,273.342514 296.679549,273.653286 296.428137,273.931528 C296.098159,274.29672 295.720895,274.533626 295.296332,274.642252 C294.87177,274.750878 294.429682,274.731788 293.970055,274.584981 C293.510427,274.438174 293.083532,274.186691 292.689356,273.830525 C292.266196,273.44817 291.957741,273.023365 291.763981,272.556099 C291.570221,272.088832 291.517055,271.626205 291.604482,271.168203 C291.691909,270.710201 291.913702,270.284118 292.269869,269.889942 C292.835545,269.263897 293.515439,268.98193 294.309573,269.044033 C295.103707,269.106136 295.905082,269.502513 296.713723,270.233179 L296.948488,270.445306 C298.180289,271.558326 298.859508,272.614277 298.986165,273.61319 C299.112823,274.612102 298.739505,275.609362 297.8662,276.604998 L297.724781,276.761509 L297.04657,276.148696 L297.199773,275.979143 C297.787901,275.304944 298.075641,274.638367 298.063003,273.979389 C298.050364,273.320412 297.696159,272.647634 297.000378,271.961034 L297.000378,271.961034 L297.000378,271.961034 Z M295.880817,273.200075 C296.124372,272.930528 296.266335,272.607361 296.30671,272.230564 C296.347085,271.853768 296.292682,271.503212 296.1435,271.178886 L295.821784,270.888193 C295.294284,270.411558 294.76189,270.138454 294.224587,270.068873 C293.687284,269.999292 293.260197,270.139849 292.943313,270.49055 C292.623811,270.84415 292.502661,271.250614 292.579861,271.709957 C292.657061,272.1693 292.917381,272.599308 293.360829,272.999995 C293.792684,273.390207 294.242075,273.608054 294.709015,273.653543 C295.175955,273.699032 295.566552,273.547877 295.880817,273.200075 L295.880817,273.200075 L295.880817,273.200075 Z" id="Code-and-design-from" fill-opacity="0.7" fill="#FFFFFF" sketch:type="MSShapeGroup"></path>
        </g>
    </g>
</svg>